<?xml version="1.0" encoding="utf-8"?>
<!-- Generator: Adobe Illustrator 27.7.0, SVG Export Plug-In . SVG Version: 6.00 Build 0)  -->
<svg version="1.1" id="레이어_1" xmlns="http://www.w3.org/2000/svg" xmlns:xlink="http://www.w3.org/1999/xlink" x="0px"
	 y="0px" viewBox="0 0 512 512" style="enable-background:new 0 0 512 512;" xml:space="preserve">
<style type="text/css">
	.st0{fill:#7A7A7A;}
</style>
<path class="st0" d="M-651.9,512c141.4,0,256-114.6,256-256S-510.5,0-651.9,0s-256,114.6-256,256S-793.3,512-651.9,512z M-691.9,336
	h24v-64h-24c-13.3,0-24-10.7-24-24s10.7-24,24-24h48c13.3,0,24,10.7,24,24v88h8c13.3,0,24,10.7,24,24s-10.7,24-24,24h-80
	c-13.3,0-24-10.7-24-24S-705.2,336-691.9,336z M-651.9,128c17.7,0,32,14.3,32,32s-14.3,32-32,32s-32-14.3-32-32
	S-669.6,128-651.9,128z"/>
<path class="st0" d="M256,4.1C116.9,4.1,4.1,116.9,4.1,256S116.9,507.9,256,507.9S507.9,395.1,507.9,256S395.1,4.1,256,4.1z
	 M285,411.6h-46.8V246.4h-18.7v-46.8H285V411.6z M261.6,177.5c-17.1,0-30.9-13.8-30.9-30.9s13.8-30.9,30.9-30.9s30.9,13.8,30.9,30.9
	S278.7,177.5,261.6,177.5z"/>
<polygon points="-268.9,241.9 -245.4,241.9 -245.4,450 -186.5,450 -186.5,183 -268.9,183 "/>
<circle cx="-215.9" cy="131.5" r="38.9"/>
</svg>
