<?xml version="1.0" encoding="utf-8"?>
<!-- Generator: Adobe Illustrator 27.7.0, SVG Export Plug-In . SVG Version: 6.00 Build 0)  -->
<svg version="1.1" id="레이어_1" xmlns="http://www.w3.org/2000/svg" xmlns:xlink="http://www.w3.org/1999/xlink" x="0px"
	 y="0px" viewBox="0 0 63 63" style="enable-background:new 0 0 63 63;" xml:space="preserve">
<style type="text/css">
	.st0{fill:#03C75A;}
	.st1{fill-rule:evenodd;clip-rule:evenodd;fill:#FFFFFF;}
	.st2{fill:none;stroke:#FFFFFF;stroke-width:3;stroke-linecap:round;stroke-miterlimit:10;}
	.st3{fill:#FFFFFF;}
</style>
<circle class="st0" cx="113.4" cy="31.5" r="31.5"/>
<path class="st1" d="M82,33.9c-0.1-0.8-0.1-1.7-0.1-2.5c0-1.1,0.1-2.2,0.2-3.3h34.7l-9.5-9.5c-1.1-1.1-1.1-3,0-4.1s3-1.1,4.1,0
	L125.8,29c1.1,1.1,1.1,3,0,4.1l0,0l-14.4,14.4c-1.1,1.1-3,1.1-4.1,0c-1.1-1.1-1.1-3,0-4.1l9.5-9.5H82z"/>
<polyline class="st2" points="-106.2,-4.1 -62.1,-4.1 -76.2,-23.3 "/>
<path class="st0" d="M31.5,3.3C16.5,3.3,4.3,14.8,3.3,29.5h36.5L24.1,13.8c-0.8-0.8-0.8-2,0-2.8c0.8-0.8,2-0.8,2.8,0l19.2,19.2
	c0.1,0.1,0.2,0.2,0.2,0.3c0,0,0,0.1,0,0.1c0.1,0.1,0.1,0.2,0.1,0.3c0,0,0,0.1,0,0.1c0,0.1,0.1,0.2,0.1,0.3c0,0.1,0,0.3,0,0.4
	s0,0.3,0,0.4c0,0.1,0,0.2-0.1,0.3c0,0,0,0.1,0,0.1c0,0.1-0.1,0.2-0.1,0.3c0,0,0,0.1,0,0.1c-0.1,0.1-0.2,0.2-0.2,0.3L26.9,52.1
	c-0.4,0.4-0.9,0.6-1.4,0.6s-1-0.2-1.4-0.6c-0.8-0.8-0.8-2,0-2.8l15.7-15.7H3.3c1,14.7,13.2,26.2,28.1,26.2
	c15.6,0,28.2-12.6,28.2-28.2S47,3.3,31.5,3.3z"/>
<path class="st3" d="M-69.1,29.5h-6.3c-1.1,0-2,0.9-2,2s0.9,2,2,2h6.3c0-0.7-0.1-1.3-0.1-2S-69.1,30.2-69.1,29.5z"/>
<path class="st3" d="M-48.3,49.2c-0.8,0.8-0.8,2,0,2.8c0.4,0.4,0.9,0.6,1.4,0.6s1-0.2,1.4-0.6l19.2-19.2c0.1-0.1,0.2-0.2,0.2-0.3
	c0,0,0-0.1,0-0.1c0.1-0.1,0.1-0.2,0.1-0.3c0,0,0-0.1,0-0.1c0-0.1,0.1-0.2,0.1-0.3c0-0.1,0-0.3,0-0.4s0-0.3,0-0.4
	c0-0.1,0-0.2-0.1-0.3c0,0,0-0.1,0-0.1c0-0.1-0.1-0.2-0.1-0.3c0,0,0-0.1,0-0.1c-0.1-0.1-0.2-0.2-0.2-0.3l-19.2-19.2
	c-0.8-0.8-2-0.8-2.8,0c-0.8,0.8-0.8,2,0,2.8l15.7,15.7h-36.5c0,0.7-0.1,1.3-0.1,2s0,1.3,0.1,2h36.5L-48.3,49.2z"/>
</svg>
